<?xml version="1.0" standalone="no"?>
<!DOCTYPE svg PUBLIC "-//W3C//DTD SVG 20010904//EN"
 "http://www.w3.org/TR/2001/REC-SVG-20010904/DTD/svg10.dtd">
<svg version="1.0" xmlns="http://www.w3.org/2000/svg"
 width="260.000000pt" height="260.000000pt" viewBox="0 0 260.000000 260.000000"
 preserveAspectRatio="xMidYMid meet">
<metadata>
Created by potrace 1.11, written by Peter Selinger 2001-2013
</metadata>
<g transform="translate(0.000000,260.000000) scale(0.100000,-0.100000)"
fill="#000000" stroke="none">
<path d="M1147 2539 c-15 -4 -42 -10 -60 -12 -104 -15 -270 -76 -387 -142
-195 -111 -377 -297 -482 -495 -44 -83 -115 -265 -133 -340 -2 -8 -9 -37 -15
-65 -23 -100 -30 -238 -17 -375 48 -512 439 -939 957 -1046 90 -19 326 -25
410 -12 25 4 61 10 80 14 49 8 174 51 249 86 175 81 373 252 479 413 59 90 66
126 27 151 -31 20 -61 10 -120 -42 -191 -168 -278 -232 -390 -285 -115 -56
-209 -77 -336 -77 -257 -1 -446 97 -374 192 19 25 21 22 32 -44 l8 -55 55 -12
c79 -19 242 -22 338 -8 46 7 85 15 87 17 5 5 14 65 30 193 8 66 14 83 33 106
16 18 17 18 23 2 3 -10 2 -33 -2 -52 -4 -19 -11 -79 -15 -134 l-7 -99 24 7
c90 28 304 154 314 185 6 19 13 70 20 145 3 33 8 83 11 110 5 51 8 95 19 285
4 58 8 116 10 128 5 33 -34 67 -93 82 -42 10 -199 17 -207 8 -1 -2 -6 -34 -9
-73 -4 -38 -9 -81 -11 -95 -2 -14 -6 -50 -9 -80 -3 -30 -8 -84 -12 -120 -7
-64 -10 -98 -13 -132 -1 -11 -7 -15 -21 -11 -17 4 -19 11 -15 37 6 41 15 102
21 151 8 69 14 119 19 145 4 22 11 81 20 148 10 90 -217 145 -490 118 -89 -9
-166 -33 -201 -62 -25 -23 -26 -27 -21 -91 8 -82 27 -258 32 -293 2 -14 7 -55
10 -92 7 -65 6 -68 -14 -68 -18 0 -21 6 -22 43 0 23 -2 49 -3 57 -2 8 -6 51
-10 95 -4 44 -9 98 -11 120 -2 22 -7 74 -11 115 -3 41 -8 78 -11 83 -6 11
-158 9 -206 -4 -23 -5 -53 -18 -66 -28 -27 -21 -30 -45 -18 -191 6 -83 18
-251 21 -300 1 -22 -2 -25 -32 -22 -107 11 -209 109 -247 238 -23 79 -26 103
-30 219 -4 125 5 194 41 313 61 201 207 402 376 516 333 224 756 228 1086 9
367 -243 525 -697 387 -1110 -25 -75 -85 -199 -127 -263 l-23 -35 25 16 c35
22 100 43 130 41 60 -4 86 -81 55 -167 -8 -21 -13 -40 -11 -42 1 -2 22 31 47
72 173 295 237 500 226 725 -8 163 -15 204 -59 340 -129 403 -478 725 -893
825 -127 31 -393 45 -468 24z"/>
<path d="M1241 1996 c-82 -29 -149 -122 -152 -208 -6 -152 99 -260 248 -254
209 9 305 260 157 410 -60 59 -170 82 -253 52z"/>
<path d="M738 1785 c-87 -30 -135 -103 -126 -195 17 -177 262 -226 344 -67 76
145 -65 315 -218 262z"/>
<path d="M1795 1785 c-129 -45 -167 -214 -68 -306 42 -40 69 -51 128 -51 64
-1 104 20 149 75 28 35 31 46 31 107 0 61 -3 72 -31 107 -57 70 -131 94 -209
68z"/>
</g>
</svg>
