<svg xmlns="http://www.w3.org/2000/svg" viewBox="0 0 689.06 2787.04">
  <path fill="#aee1f6" style="opacity: 0.4;" d="M676.3,1911.3c-8.6-64.3-35.6-127.3-82-172.6c-43.3-42.2-104.8-65.8-143.5-112.6c-29.6-35.7-10.4-85.3,9.8-120.5c23.3-40.7,58-73.2,84.9-111.3c39.1-55.5,62.9-122.1,79-187.6c15-61.2,17-124.5,6.9-186.7c-1.4-8.5-2.9-16.9-4.7-25.3C607.1,901,569.2,812,521.5,729.3c-9.5-16.5-19.5-32.8-29.8-48.9c-91.8-143.2-84.9-323.5,2.4-467.2c38-62.6,71.6-138,55.3-213.2H429.2H222.1h-75c3.6,4.7,10.6,12.1,14.4,16.8c19.8,24.4,40.8,48.1,58.4,74c26.1,38.6,60.8,101,25.1,144.2c-38.8,46.8-100.2,70.4-143.5,112.6C55,392.9,28,455.9,19.4,520.2C3.2,641.5,38.2,769.3,140.1,843.4c55,40,106.8,76.9,132.3,142.9c32.7,84.6,12.1,176.9-26.1,256c-12.2,25.2-25.5,50.1-41.4,73.3c-16.1,23.5-35.7,44.6-49.4,69.7c-39.4,72.4,8.2,156.8,46.1,219c87.4,143.7,94.2,323.9,2.4,467.1c-10.3,16.1-20.2,32.4-29.8,48.9C126.5,2203,88.6,2292.1,69,2385.7c-20.4,97.2-12.9,185.2,23.1,277.9c16.4,42.3,34,83.1,54.9,123.4l401.3,0c-0.6-1.5-2.8-5.9-3.8-7c-85.9-104.9-174.4-265.2-121.2-402.6c25.5-66,77.3-102.9,132.3-142.9C657.5,2160.4,692.5,2032.6,676.3,1911.3z"/>
</svg>
