<svg fill="none" xmlns="http://www.w3.org/2000/svg" viewBox="0 0 320.502 82.62">
  <g id="lfl_logo">
    <path style="fill:#777472;" d="M71.825,13.415L59.17,42.495h-5.317l-12.716-29.08h5.853l9.687,22.444l9.748-22.444H71.825z"/>
    <path style="fill:#777472;" d="M99.338,37.961v4.534H77.533v-29.08H98.74v4.534H82.913v7.564h14.055v4.431H82.913v8.017H99.338z"/>
    <path style="fill:#E79324;" d="M161.043,42.289l-5.933-8.512h-7.752v8.491h-5.338V13.209h11.954c2.262-0.052,4.51,0.369,6.6,1.237c1.754,0.743,3.246,1.991,4.287,3.586c1.036,1.652,1.558,3.574,1.5,5.523c0.052,2.002-0.509,3.972-1.608,5.647c-1.126,1.617-2.724,2.848-4.575,3.524l6.677,9.563H161.043z M158.982,19.268c-1.56-1.1-3.454-1.625-5.358-1.484h-6.266v11.583h6.307c1.909,0.129,3.803-0.41,5.358-1.525c1.247-1.065,1.925-2.65,1.834-4.287c0.094-1.637-0.585-3.224-1.834-4.287"/>
    <path style="fill:#E79324;" d="M194.183,37.755v4.534h-21.805v-29.08h21.228v4.513h-15.828v7.564h14.06v4.452h-14.06v8.017H194.183z"/>
    <path style="fill:#E79324;" d="M224.211,37.755v4.534h-21.805v-29.08h21.228v4.513h-15.828v7.564h14.035v4.452h-14.035v8.017H224.211z"/>
    <path style="fill:#777472;" d="M0.33,13.415h5.4v24.5h15.189v4.58H0.33V13.415z"/>
    <rect style="fill:#777472;" x="28.998" y="13.415" width="5.4" height="29.08"/>
    <path style="fill:#E79324;" d="M119.536,17.722v8.862h14.035v4.555h-14.035v11.15h-5.4v-29.08h21.228v4.513H119.536z"/>
    <path style="fill:#E79324;" d="M278.703,55.953c-8.082,0.012-14.642-6.531-14.654-14.612c-0.012-8.082,6.531-14.642,14.612-14.654c8.082-0.012,14.642,6.531,14.654,14.612c0,0.028,0,0.055,0,0.083C293.281,49.431,286.752,55.942,278.703,55.953z M278.703,29.367c-6.613-0.012-11.983,5.34-11.995,11.953c-0.012,6.613,5.34,11.983,11.953,11.995c6.613,0.012,11.983-5.34,11.995-11.953c0-0.015,0-0.03,0-0.045C290.643,34.721,285.299,29.378,278.703,29.367L278.703,29.367z"/>
    <path style="fill:#E79324;" d="M278.699,28.068c0.709-0.012,1.278-0.591,1.278-1.3v-5.151c0.097-0.711-0.4-1.367-1.112-1.464c-0.711-0.097-1.367,0.4-1.464,1.112c-0.016,0.117-0.016,0.235,0,0.352v5.152c0,0.718,0.582,1.3,1.3,1.3l0,0L278.699,28.068z"/>
    <path style="fill:#E79324;" d="M278.699,18.011c0.709-0.012,1.278-0.591,1.278-1.3V11.56c0.097-0.711-0.4-1.367-1.112-1.464s-1.367,0.4-1.464,1.112c-0.016,0.117-0.016,0.235,0,0.352v5.091c-0.033,0.717,0.521,1.325,1.239,1.359c0.02,0.001,0.041,0.001,0.061,0.001H278.699z"/>
    <path style="fill:#E79324;" d="M255.517,31.902c0.26-0.656-0.061-1.399-0.717-1.659c-0.008-0.003-0.017-0.007-0.025-0.01l-4.823-1.855c-0.695-0.18-1.404,0.238-1.584,0.933c-0.151,0.585,0.121,1.198,0.657,1.478l4.823,1.855C254.514,32.895,255.257,32.564,255.517,31.902z"/>
    <path style="fill:#E79324;" d="M255.661,50.945c-0.299-0.645-1.056-0.937-1.711-0.66l-4.72,2.061c-0.632,0.34-0.87,1.128-0.53,1.76c0.304,0.566,0.976,0.825,1.581,0.61l4.72-2.061C255.654,52.363,255.949,51.6,255.661,50.945z"/>
    <path style="fill:#E79324;" d="M269.222,64.321c-0.665-0.24-1.402,0.087-1.669,0.742l-1.834,4.823c-0.256,0.66,0.072,1.403,0.732,1.659c0.66,0.256,1.403-0.072,1.659-0.732l0,0l1.855-4.823c0.26-0.656-0.061-1.399-0.717-1.659c-0.008-0.003-0.017-0.007-0.025-0.01H269.222z"/>
    <path style="fill:#E79324;" d="M288.286,64.176c-0.653,0.292-0.948,1.056-0.66,1.711l2.061,4.72c0.276,0.655,1.031,0.962,1.686,0.686c0.655-0.276,0.962-1.031,0.686-1.686c-0.007-0.017-0.015-0.034-0.023-0.051l-2.061-4.72C289.684,64.195,288.935,63.902,288.286,64.176z"/>
    <path style="fill:#E79324;" d="M301.661,50.616c-0.26,0.656,0.061,1.399,0.717,1.659c0.008,0.003,0.017,0.007,0.025,0.01l4.8,1.855c0.666,0.251,1.409-0.08,1.669-0.742c0.284-0.634,0.001-1.377-0.633-1.661c-0.042-0.019-0.086-0.036-0.13-0.05l-4.8-1.855c-0.671-0.234-1.406,0.115-1.649,0.783L301.661,50.616z"/>
    <path style="fill:#E79324;" d="M301.517,31.572c0.299,0.645,1.062,0.93,1.711,0.639l4.7-2.061c0.657-0.265,0.974-1.013,0.709-1.67c-0.265-0.657-1.013-0.974-1.67-0.709c-0.023,0.009-0.046,0.019-0.069,0.03l-4.72,2.061C301.525,30.153,301.229,30.917,301.517,31.572z"/>
    <path style="fill:#E79324;" d="M287.956,18.197c0.66,0.251,1.398-0.081,1.649-0.741c0,0,0-0.001,0-0.001l1.855-4.823c0.26-0.656-0.061-1.399-0.717-1.659c-0.008-0.003-0.017-0.007-0.025-0.01c-0.665-0.24-1.402,0.087-1.669,0.742l-1.834,4.823c-0.26,0.656,0.061,1.399,0.717,1.659C287.94,18.191,287.948,18.194,287.956,18.197L287.956,18.197z"/>
    <path style="fill:#E79324;" d="M268.954,18.319c0.648-0.281,0.945-1.033,0.664-1.681c-0.001-0.003-0.003-0.006-0.004-0.009l-2.061-4.72c-0.304-0.642-1.072-0.917-1.714-0.612c-0.623,0.295-0.903,1.028-0.635,1.663l2.061,4.72c0.306,0.626,1.046,0.906,1.69,0.639H268.954z"/>
    <path style="fill:#E79324;" d="M262.215,24.895c0.495-0.511,0.495-1.323,0-1.834l-3.565-3.71c-0.471-0.542-1.292-0.599-1.834-0.128c-0.542,0.471-0.599,1.292-0.128,1.834c0.04,0.046,0.083,0.089,0.128,0.128l3.565,3.71C260.892,25.39,261.704,25.39,262.215,24.895z"/>
    <path style="fill:#E79324;" d="M255.372,41.382c-0.012-0.709-0.591-1.278-1.3-1.278h-5.152c-0.711-0.097-1.367,0.4-1.464,1.112c-0.097,0.711,0.4,1.367,1.112,1.464c0.117,0.016,0.236,0.016,0.352,0h5.152C254.789,42.68,255.371,42.099,255.372,41.382z"/>
    <path style="fill:#E79324;" d="M262.195,57.87c-0.511-0.495-1.323-0.495-1.834,0l-3.648,3.668c-0.565,0.443-0.663,1.26-0.22,1.825s1.26,0.663,1.825,0.22c0.086-0.067,0.163-0.145,0.229-0.231l3.648-3.648C262.69,59.193,262.69,58.381,262.195,57.87z"/>
    <path style="fill:#E79324;" d="M278.661,64.63c-0.709,0.012-1.278,0.591-1.278,1.3v5.152c-0.097,0.711,0.4,1.367,1.112,1.464s1.367-0.4,1.464-1.112c0.016-0.117,0.016-0.235,0-0.352v-5.154C279.958,65.212,279.377,64.631,278.661,64.63z"/>
    <path style="fill:#E79324;" d="M295.149,57.87c-0.492,0.505-0.492,1.309,0,1.814l3.669,3.648c0.481,0.501,1.276,0.517,1.777,0.037c0.013-0.012,0.025-0.024,0.037-0.037c0.492-0.505,0.492-1.309,0-1.814l-3.649-3.648c-0.492-0.506-1.301-0.518-1.807-0.027C295.167,57.852,295.158,57.861,295.149,57.87z"/>
    <path style="fill:#E79324;" d="M301.929,41.382c0,0.718,0.582,1.3,1.3,1.3l0,0h5.152c0.718,0,1.3-0.582,1.3-1.3c0-0.718-0.582-1.3-1.3-1.3h-5.152C302.511,40.082,301.929,40.664,301.929,41.382C301.929,41.382,301.929,41.382,301.929,41.382z"/>
    <path style="fill:#E79324;" d="M295.17,24.894c0.511,0.495,1.323,0.495,1.834,0l3.648-3.648c0.443-0.565,0.345-1.382-0.22-1.825c-0.467-0.367-1.123-0.37-1.594-0.009l-3.668,3.648C294.675,23.571,294.675,24.383,295.17,24.894z"/>
    <path style="fill:#E79324;" d="M269.326,31.944c0.495-0.511,0.495-1.323,0-1.834l-3.648-3.648c-0.542-0.471-1.363-0.414-1.834,0.128c-0.425,0.489-0.425,1.217,0,1.706l3.648,3.648C268.003,32.439,268.815,32.439,269.326,31.944z"/>
    <path style="fill:#E79324;" d="M265.43,41.382c-0.012-0.709-0.591-1.278-1.3-1.278h-5.152c-0.711-0.097-1.367,0.4-1.464,1.112c-0.097,0.711,0.4,1.367,1.112,1.464c0.117,0.016,0.236,0.016,0.352,0h5.152C264.847,42.68,265.429,42.099,265.43,41.382z"/>
    <path style="fill:#E79324;" d="M245.294,41.382c-0.012-0.709-0.591-1.278-1.3-1.278h-5.152c-0.711-0.097-1.367,0.4-1.464,1.112c-0.097,0.711,0.4,1.367,1.112,1.464c0.117,0.016,0.236,0.016,0.352,0h5.152c0.718,0,1.3-0.582,1.3-1.3v0V41.382z"/>
    <path style="fill:#E79324;" d="M255.064,64.918c-0.505-0.492-1.309-0.492-1.814,0l-3.651,3.669c-0.501,0.501-0.501,1.313,0,1.814c0.501,0.501,1.313,0.501,1.814,0l3.648-3.648c0.506-0.492,0.518-1.301,0.027-1.807c-0.009-0.009-0.018-0.018-0.027-0.027L255.064,64.918z"/>
    <path style="fill:#E79324;" d="M278.682,74.708c-0.709,0.012-1.278,0.591-1.278,1.3v5.152c-0.097,0.711,0.4,1.367,1.112,1.464s1.367-0.4,1.464-1.112c0.016-0.117,0.016-0.235,0-0.352v-5.154C279.979,75.29,279.398,74.709,278.682,74.708z"/>
    <path style="fill:#E79324;" d="M302.3,64.939c-0.492,0.505-0.492,1.309,0,1.814l3.751,3.648c0.565,0.443,1.382,0.345,1.825-0.22c0.367-0.467,0.37-1.123,0.009-1.594l-3.648-3.648c-0.461-0.535-1.267-0.595-1.802-0.135C302.386,64.846,302.341,64.891,302.3,64.939L302.3,64.939z"/>
    <path style="fill:#E79324;" d="M312.09,41.383c0.012,0.709,0.591,1.278,1.3,1.278h5.152c0.711,0.097,1.367-0.4,1.464-1.112c0.097-0.711-0.4-1.367-1.112-1.464c-0.117-0.016-0.236-0.016-0.352,0h-5.152c-0.718,0-1.3,0.582-1.3,1.3v0V41.383z"/>
    <path style="fill:#E79324;" d="M302.321,17.701c0.505,0.492,1.309,0.492,1.814,0l3.648-3.668c0.501-0.501,0.501-1.313,0-1.814c-0.501-0.501-1.313-0.501-1.814,0l-3.648,3.648c-0.506,0.492-0.518,1.301-0.027,1.807C302.303,17.683,302.312,17.692,302.321,17.701z"/>
    <path style="fill:#E79324;" d="M278.699,7.912c0.709-0.012,1.278-0.591,1.278-1.3V1.461c0.097-0.711-0.4-1.367-1.112-1.464s-1.367,0.4-1.464,1.112c-0.016,0.117-0.016,0.235,0,0.352v5.153c0,0.718,0.582,1.3,1.3,1.3l0,0L278.699,7.912z"/>
    <path style="fill:#E79324;" d="M255.085,17.676c0.492-0.505,0.492-1.309,0-1.814l-3.668-3.648c-0.502-0.502-1.316-0.502-1.818,0c-0.502,0.502-0.502,1.316,0,1.818l3.648,3.648c0.492,0.506,1.301,0.518,1.807,0.027c0.009-0.009,0.018-0.018,0.027-0.027L255.085,17.676z"/>
    <path style="fill:#E79324;" d="M269.305,50.698c-0.492-0.506-1.301-0.518-1.807-0.027c-0.009,0.009-0.018,0.018-0.027,0.027l-3.652,3.648c-0.501,0.501-0.501,1.313,0,1.814c0.501,0.501,1.313,0.501,1.814,0l3.668-3.648c0.492-0.505,0.492-1.309,0-1.814H269.305z"/>
    <path style="fill:#E79324;" d="M278.662,54.593c-0.706,0-1.278,0.572-1.278,1.278v5.173c0.097,0.711,0.753,1.209,1.464,1.112c0.578-0.079,1.033-0.534,1.112-1.112v-5.235c-0.044-0.685-0.614-1.217-1.3-1.216H278.662z"/>
    <path style="fill:#E79324;" d="M288.039,50.718c-0.492,0.505-0.492,1.309,0,1.814l3.586,3.648c0.437,0.57,1.253,0.677,1.823,0.24c0.57-0.437,0.677-1.253,0.24-1.823c-0.066-0.086-0.143-0.164-0.229-0.231l-3.648-3.648C289.316,50.242,288.534,50.242,288.039,50.718z"/>
    <path style="fill:#E79324;" d="M291.934,41.382c0,0.718,0.582,1.3,1.3,1.3l0,0h5.15c0.711,0.097,1.367-0.4,1.464-1.112c0.097-0.711-0.4-1.367-1.112-1.464c-0.117-0.016-0.236-0.016-0.352,0h-5.152c-0.709,0-1.288,0.569-1.3,1.278L291.934,41.382z"/>
    <path style="fill:#E79324;" d="M288.059,31.963c0.492,0.506,1.301,0.518,1.807,0.027c0.009-0.009,0.018-0.018,0.027-0.027l3.648-3.648c0.443-0.565,0.345-1.382-0.22-1.825c-0.467-0.367-1.123-0.37-1.594-0.009l-3.668,3.668C287.567,30.654,287.567,31.458,288.059,31.963z"/>
    <path style="fill:#E79324;" d="M273.509,29.119c0.657-0.276,0.97-1.03,0.7-1.69l-2.061-4.761c-0.318-0.644-1.097-0.909-1.741-0.591c-0.591,0.292-0.871,0.98-0.65,1.601l2.061,4.761c0.272,0.651,1.02,0.96,1.671,0.688c0.006-0.003,0.012-0.005,0.019-0.008H273.509z"/>
    <path style="fill:#E79324;" d="M266.399,36.354c0.267-0.666-0.056-1.422-0.721-1.69l-4.781-1.937c-0.656-0.291-1.424,0.006-1.715,0.662c-0.291,0.657,0.006,1.424,0.662,1.715c0.027,0.012,0.055,0.023,0.084,0.034l4.781,1.917C265.369,37.325,266.123,37.012,266.399,36.354L266.399,36.354z"/>
    <path style="fill:#E79324;" d="M266.481,46.493c-0.283-0.66-1.048-0.965-1.708-0.682c-0.001,0-0.002,0.001-0.003,0.002l-4.741,2.061c-0.616,0.368-0.818,1.166-0.45,1.783c0.299,0.502,0.897,0.742,1.46,0.587l4.74-2.061c0.657-0.276,0.97-1.03,0.7-1.69H266.481z"/>
    <path style="fill:#E79324;" d="M273.694,53.624c-0.653-0.268-1.4,0.044-1.668,0.697c0,0.001-0.001,0.002-0.001,0.003l-1.937,4.8c-0.271,0.639,0.028,1.377,0.667,1.648c0.018,0.008,0.036,0.015,0.054,0.021c0.655,0.264,1.399-0.052,1.663-0.707c0.002-0.005,0.004-0.009,0.006-0.014l1.937-4.781c0.264-0.655-0.052-1.399-0.707-1.663c-0.005-0.002-0.009-0.004-0.014-0.006V53.624z"/>
    <path style="fill:#E79324;" d="M283.855,53.542c-0.657,0.276-0.97,1.03-0.7,1.69l2.059,4.758c0.318,0.644,1.097,0.909,1.741,0.591c0.591-0.292,0.871-0.98,0.65-1.601l-2.061-4.761C285.259,53.571,284.508,53.27,283.855,53.542z"/>
    <path style="fill:#E79324;" d="M290.965,46.307c-0.267,0.666,0.056,1.422,0.721,1.69l4.781,1.937c0.694,0.185,1.406-0.227,1.591-0.921c0.153-0.575-0.103-1.18-0.622-1.47l-4.781-1.936C291.995,45.337,291.241,45.65,290.965,46.307z"/>
    <path style="fill:#E79324;" d="M290.883,36.168c0.283,0.66,1.048,0.965,1.707,0.682c0.001-0.001,0.002-0.001,0.004-0.002l4.74-2.061c0.654-0.279,0.959-1.036,0.68-1.69s-1.036-0.959-1.69-0.68l-4.74,2.061c-0.657,0.276-0.969,1.03-0.7,1.69H290.883z"/>
    <path style="fill:#E79324;" d="M283.669,29.016c0.653,0.268,1.4-0.044,1.668-0.697c0-0.001,0.001-0.002,0.001-0.003l1.937-4.781c0.35-0.627,0.126-1.419-0.501-1.769c-0.627-0.35-1.419-0.126-1.769,0.501c-0.053,0.094-0.093,0.195-0.121,0.299l-1.937,4.781c-0.264,0.655,0.052,1.399,0.707,1.663c0.005,0.002,0.009,0.004,0.014,0.006H283.669z"/>
    <path style="fill:#7F7B77;" d="M0.618,61.064h2.576v11.75h7.3v2.2H0.618V61.064z"/>
    <path style="fill:#7F7B77;" d="M27.493,61.064h2.6v13.95h-2.6V61.064z"/>
    <path style="fill:#7F7B77;" d="M51.38,63.228v4.246h6.739v2.185H51.38v5.355h-2.6v-13.95h10.184v2.164L51.38,63.228z"/>
    <path style="fill:#7F7B77;" d="M86.89,72.832v2.182H76.42v-13.95h10.181v2.164h-7.584v3.627h6.739v2.059h-6.739v3.833L86.89,72.832z"/>
    <path style="fill:#7F7B77;" d="M105.912,74.749c-0.866-0.235-1.674-0.649-2.37-1.216l0.886-2.061c0.622,0.48,1.318,0.856,2.061,1.113c0.808,0.283,1.657,0.429,2.513,0.432c0.8,0.053,1.6-0.118,2.308-0.495c0.479-0.267,0.778-0.771,0.783-1.319c0.016-0.365-0.127-0.718-0.392-0.969c-0.321-0.274-0.692-0.484-1.092-0.618c-0.426-0.137-1.024-0.302-1.793-0.495c-0.874-0.192-1.734-0.439-2.576-0.742c-0.65-0.261-1.229-0.673-1.69-1.2c-0.505-0.613-0.762-1.392-0.721-2.185c0.01-0.734,0.232-1.45,0.639-2.061c0.476-0.672,1.136-1.193,1.9-1.5c0.981-0.397,2.033-0.586,3.091-0.556c0.849-0.003,1.695,0.108,2.514,0.33c0.732,0.187,1.428,0.494,2.061,0.907l-0.8,2.061c-0.599-0.359-1.244-0.636-1.917-0.824c-0.63-0.177-1.282-0.267-1.937-0.268c-0.797-0.061-1.594,0.119-2.288,0.515c-0.47,0.291-0.752,0.808-0.742,1.36c-0.015,0.379,0.145,0.743,0.433,0.989c0.319,0.273,0.691,0.477,1.092,0.6c0.44,0.137,1.038,0.302,1.793,0.495c0.859,0.197,1.706,0.444,2.535,0.742c0.656,0.261,1.242,0.672,1.711,1.2c0.476,0.579,0.724,1.312,0.7,2.061c0,0.733-0.215,1.449-0.618,2.061c-0.476,0.676-1.144,1.193-1.917,1.484c-0.981,0.397-2.033,0.586-3.091,0.556c-1.037,0.021-2.072-0.111-3.071-0.392L105.912,74.749z"/>
    <path style="fill:#7F7B77;" d="M134.992,63.249h-4.6v-2.185h11.834v2.185h-4.617v11.765h-2.617V63.249z"/>
    <path style="fill:#7F7B77;" d="M165.144,70.091v4.926h-2.6v-4.782l-5.479-9.068h2.782l4.122,6.8l4.122-6.8h2.556L165.144,70.091z"/>
    <path style="fill:#7F7B77;" d="M187.237,61.064h2.6v11.75h7.3v2.2h-9.9V61.064z"/>
    <path style="fill:#7F7B77;" d="M224.582,72.832v2.182h-10.47v-13.95h10.181v2.164h-7.584v3.627h6.739v2.059h-6.739v3.833L224.582,72.832z"/>
    <line style="fill:none;stroke:#E79324;stroke-linecap:round;stroke-miterlimit:10;" x1="224.025" y1="51.852" x2="0" y2="51.852"/>
  </g>
</svg>
