<svg fill="none" xmlns="http://www.w3.org/2000/svg" viewBox="0 0 82.7 82.7">
	<path class="shape-primary" d="M41.3,18C41.3,18,41.3,18,41.3,18c0.8,0,1.3-0.6,1.3-1.3v-5.2c0.1-0.7-0.4-1.4-1.1-1.5c-0.7-0.1-1.4,0.4-1.5,1.1c0,0.1,0,0.2,0,0.4v5.1C40,17.4,40.6,18,41.3,18z"/>
	<polygon class="shape-primary" points="41.3,18 41.3,18 41.3,18"/>
	<path class="shape-primary" d="M11.7,30.8l4.8,1.9c0.7,0.3,1.4-0.1,1.7-0.7c0.3-0.7-0.1-1.4-0.7-1.7c0,0,0,0,0,0l-4.8-1.9c-0.7-0.2-1.4,0.2-1.6,0.9C10.9,29.9,11.1,30.5,11.7,30.8z"/>
	<path class="shape-primary" d="M16.6,50.3l-4.7,2.1c-0.6,0.3-0.9,1.1-0.5,1.8c0.3,0.6,1,0.8,1.6,0.6l4.7-2.1c0.7-0.3,0.9-1.1,0.7-1.7C18,50.3,17.2,50,16.6,50.3z"/>
	<path class="shape-primary" d="M31.9,64.3C31.9,64.3,31.9,64.3,31.9,64.3L31.9,64.3c-0.7-0.2-1.4,0.1-1.7,0.7l-1.8,4.8c-0.3,0.7,0.1,1.4,0.7,1.7c0.7,0.3,1.4-0.1,1.7-0.7l1.9-4.8C32.9,65.3,32.5,64.6,31.9,64.3z"/>
	<path class="shape-primary" d="M54.7,69.6l-2.1-4.7c-0.3-0.6-1-0.9-1.7-0.7c-0.7,0.3-0.9,1.1-0.7,1.7l2.1,4.7c0.3,0.7,1,1,1.7,0.7S55,70.3,54.7,69.6C54.7,69.6,54.7,69.6,54.7,69.6z"/>
	<path class="shape-primary" d="M70.9,51.8c0,0-0.1,0-0.1,0l-4.8-1.9c-0.7-0.2-1.4,0.1-1.6,0.8l0,0C64,51.3,64.4,52,65,52.3c0,0,0,0,0,0l4.8,1.9c0.7,0.3,1.4-0.1,1.7-0.7C71.8,52.8,71.5,52,70.9,51.8z"/>
	<path class="shape-primary" d="M65.9,32.2l4.7-2.1c0.7-0.3,1-1,0.7-1.7c-0.3-0.7-1-1-1.7-0.7c0,0,0,0-0.1,0l-4.7,2.1c-0.7,0.3-0.9,1.1-0.7,1.7C64.5,32.2,65.2,32.5,65.9,32.2z"/>
	<path class="shape-primary" d="M50.6,18.2C50.6,18.2,50.6,18.2,50.6,18.2L50.6,18.2c0.7,0.3,1.4-0.1,1.7-0.7c0,0,0,0,0,0l1.9-4.8c0.3-0.7-0.1-1.4-0.7-1.7c0,0,0,0,0,0c-0.7-0.2-1.4,0.1-1.7,0.7l-1.8,4.8C49.6,17.2,49.9,17.9,50.6,18.2z"/>
	<path class="shape-primary" d="M29.9,17.7c0.3,0.6,1,0.9,1.7,0.6h0c0.6-0.3,0.9-1,0.7-1.7c0,0,0,0,0,0l-2.1-4.7c-0.3-0.6-1.1-0.9-1.7-0.6c-0.6,0.3-0.9,1-0.6,1.7L29.9,17.7z"/>
	<path class="shape-primary" d="M19.5,21.2l3.6,3.7c0.5,0.5,1.3,0.5,1.8,0c0.5-0.5,0.5-1.3,0-1.8l-3.6-3.7c-0.5-0.5-1.3-0.6-1.8-0.1c-0.5,0.5-0.6,1.3-0.1,1.8C19.4,21.1,19.4,21.2,19.5,21.2z"/>
	<path class="shape-primary" d="M11.6,42.7h5.2c0.7,0,1.3-0.6,1.3-1.3c0-0.7-0.6-1.3-1.3-1.3h-5.2c-0.7-0.1-1.4,0.4-1.5,1.1c-0.1,0.7,0.4,1.4,1.1,1.5C11.3,42.7,11.4,42.7,11.6,42.7z"/>
	<path class="shape-primary" d="M23,57.9l-3.6,3.7c-0.6,0.4-0.7,1.3-0.2,1.8c0.4,0.6,1.3,0.7,1.8,0.2c0.1-0.1,0.2-0.1,0.2-0.2l3.6-3.6c0.5-0.5,0.5-1.3,0-1.8C24.3,57.4,23.5,57.4,23,57.9z"/>
	<path class="shape-primary" d="M41.1,72.6c0.7,0.1,1.4-0.4,1.5-1.1c0-0.1,0-0.2,0-0.4v-5.2c0-0.7-0.6-1.3-1.3-1.3c-0.7,0-1.3,0.6-1.3,1.3v5.2C39.9,71.8,40.4,72.5,41.1,72.6z"/>
	<path class="shape-primary" d="M59.6,57.9c-0.5-0.5-1.3-0.5-1.8,0c0,0,0,0,0,0c-0.5,0.5-0.5,1.3,0,1.8l3.7,3.6c0.5,0.5,1.3,0.5,1.8,0c0,0,0,0,0,0c0.5-0.5,0.5-1.3,0-1.8L59.6,57.9z"/>
	<path class="shape-primary" d="M71,40.1h-5.2c-0.7,0-1.3,0.6-1.3,1.3v0c0,0.7,0.6,1.3,1.3,1.3H71c0.7,0,1.3-0.6,1.3-1.3C72.3,40.7,71.7,40.1,71,40.1z"/>
	<path class="shape-primary" d="M59.6,24.9l3.6-3.6c0.4-0.6,0.3-1.4-0.2-1.8c-0.5-0.4-1.1-0.4-1.6,0l-3.7,3.6c-0.5,0.5-0.5,1.3,0,1.8C58.3,25.4,59.1,25.4,59.6,24.9z"/>
	<path class="shape-primary" d="M6.6,40.1H1.5C0.8,40,0.1,40.5,0,41.2c-0.1,0.7,0.4,1.4,1.1,1.5c0.1,0,0.2,0,0.4,0h5.2c0.7,0,1.3-0.6,1.3-1.3C7.9,40.7,7.3,40.1,6.6,40.1z"/>
	<polygon class="shape-primary" points="7.9,41.4 7.9,41.4 7.9,41.4"/>
	<path class="shape-primary" d="M17.7,64.9L17.7,64.9c-0.5-0.5-1.3-0.5-1.8,0l-3.7,3.7c-0.5,0.5-0.5,1.3,0,1.8s1.3,0.5,1.8,0l3.6-3.6C18.2,66.3,18.2,65.5,17.7,64.9C17.7,65,17.7,64.9,17.7,64.9z"/>
	<path class="shape-primary" d="M41.3,74.7c-0.7,0-1.3,0.6-1.3,1.3v5.2c-0.1,0.7,0.4,1.4,1.1,1.5c0.7,0.1,1.4-0.4,1.5-1.1c0-0.1,0-0.2,0-0.4V76C42.6,75.3,42,74.7,41.3,74.7z"/>
	<path class="shape-primary" d="M66.9,65c-0.5-0.5-1.3-0.6-1.8-0.1c0,0-0.1,0.1-0.1,0.1c-0.5,0.5-0.5,1.3,0,1.8l3.8,3.6c0.6,0.4,1.4,0.3,1.8-0.2c0.4-0.5,0.4-1.1,0-1.6L66.9,65z"/>
	<path class="shape-primary" d="M81.5,40.1c-0.1,0-0.2,0-0.4,0H76c-0.7,0-1.3,0.6-1.3,1.3c0,0.7,0.6,1.3,1.3,1.3h5.2c0.7,0.1,1.4-0.4,1.5-1.1C82.7,40.9,82.2,40.2,81.5,40.1z"/>
	<polygon class="shape-primary" points="74.7,41.4 74.7,41.4 74.7,41.4"/>
	<path class="shape-primary" d="M65,17.7c0.5,0.5,1.3,0.5,1.8,0l3.6-3.7c0.5-0.5,0.5-1.3,0-1.8s-1.3-0.5-1.8,0L65,15.9C64.4,16.4,64.4,17.2,65,17.7C64.9,17.7,64.9,17.7,65,17.7z"/>
	<path class="shape-primary" d="M41.3,7.9L41.3,7.9c0.7,0,1.3-0.6,1.3-1.3V1.5c0.1-0.7-0.4-1.4-1.1-1.5c-0.7-0.1-1.4,0.4-1.5,1.1c0,0.1,0,0.2,0,0.4v5.2C40,7.3,40.6,7.9,41.3,7.9z"/>
	<path class="shape-primary" d="M15.9,17.7c0.5,0.5,1.3,0.5,1.8,0c0,0,0,0,0,0l0,0c0.5-0.5,0.5-1.3,0-1.8l-3.7-3.6c-0.5-0.5-1.3-0.5-1.8,0c-0.5,0.5-0.5,1.3,0,1.8L15.9,17.7z"/>
	<path class="shape-primary" d="M56.1,54.4l-3.6-3.6c0.7-0.8,1.3-1.8,1.8-2.8l4.8,1.9c0.7,0.2,1.4-0.2,1.6-0.9c0.2-0.6-0.1-1.2-0.6-1.5l-4.8-1.9c0.3-0.9,0.5-1.9,0.6-2.9H61c0.7,0.1,1.4-0.4,1.5-1.1c0.1-0.7-0.4-1.4-1.1-1.5c-0.1,0-0.2,0-0.4,0h-5.1c-0.1-1.1-0.3-2.2-0.6-3.3l4.7-2.1c0.7-0.3,1-1,0.7-1.7c-0.3-0.7-1-1-1.7-0.7l-4.7,2.1c-0.5-0.9-1-1.7-1.7-2.5l3.6-3.6c0.4-0.6,0.3-1.4-0.2-1.8c-0.5-0.4-1.1-0.4-1.6,0l-3.6,3.6c-0.8-0.7-1.8-1.3-2.7-1.8l1.9-4.8c0.4-0.6,0.1-1.4-0.5-1.8c-0.6-0.4-1.4-0.1-1.8,0.5c-0.1,0.1-0.1,0.2-0.1,0.3l-1.9,4.8c-1-0.3-2-0.5-3-0.6v-5.1c0.1-0.7-0.4-1.4-1.1-1.5c-0.7-0.1-1.4,0.4-1.5,1.1c0,0.1,0,0.2,0,0.4v5.1c-1.1,0.1-2.2,0.3-3.2,0.6l-2-4.7c-0.3-0.6-1.1-0.9-1.7-0.6c-0.6,0.3-0.9,1-0.7,1.6l2,4.7c-0.9,0.5-1.7,1-2.5,1.7l-3.6-3.6c-0.5-0.5-1.4-0.4-1.8,0.1c-0.4,0.5-0.4,1.2,0,1.7l3.6,3.6c-0.7,0.8-1.3,1.8-1.8,2.7l-4.8-1.9c-0.7-0.3-1.4,0-1.7,0.7s0,1.4,0.7,1.7c0,0,0.1,0,0.1,0l4.8,1.9c-0.3,1-0.5,2-0.6,3.1h-5.1c-0.7-0.1-1.4,0.4-1.5,1.1c-0.1,0.7,0.4,1.4,1.1,1.5c0.1,0,0.2,0,0.4,0h5.1c0.1,1.1,0.3,2.1,0.6,3.1l-4.7,2.1c-0.6,0.4-0.8,1.2-0.4,1.8c0.3,0.5,0.9,0.7,1.5,0.6l4.7-2.1c0.5,0.9,1,1.7,1.7,2.5l-3.6,3.6c-0.5,0.5-0.5,1.3,0,1.8s1.3,0.5,1.8,0l3.7-3.6c0.8,0.7,1.8,1.3,2.7,1.8l-1.9,4.8c-0.3,0.6,0,1.4,0.7,1.6c0,0,0,0,0.1,0c0.7,0.3,1.4-0.1,1.7-0.7c0,0,0,0,0,0l1.9-4.8c1,0.3,2,0.5,3,0.6v5.2c0.1,0.7,0.8,1.2,1.5,1.1c0.6-0.1,1-0.5,1.1-1.1v-5.2c1.1-0.1,2.2-0.3,3.2-0.6l2.1,4.7c0.3,0.6,1.1,0.9,1.7,0.6c0.6-0.3,0.9-1,0.7-1.6l-2.1-4.7c0.9-0.5,1.7-1,2.5-1.7l3.6,3.6c0.4,0.6,1.3,0.7,1.8,0.2s0.7-1.3,0.2-1.8C56.3,54.5,56.2,54.4,56.1,54.4z M41.3,53.3c-6.6,0-12-5.4-12-12s5.4-12,12-12v0c6.6,0,11.9,5.4,12,12c0,0,0,0,0,0C53.3,48,47.9,53.3,41.3,53.3z"/>
</svg>
