<svg id="Layer_1" data-name="Layer 1" xmlns="http://www.w3.org/2000/svg" viewBox="0 0 1098.42 262.84"><defs><style>.cls-1{font-size:151.04px;font-family:DINCondensed-Bold, DIN Condensed;}.cls-1,.cls-15{fill:#fff;}.cls-1,.cls-4{font-weight:700;}.cls-2{letter-spacing:-0.12em;fill:#000;}.cls-3,.cls-4{fill:#72bba3;}.cls-4{font-size:36.74px;font-family:D-DIN-Bold, D-DIN;letter-spacing:0.04em;}.cls-5{letter-spacing:0.03em;}.cls-6{letter-spacing:0.02em;}.cls-7{letter-spacing:0.01em;}.cls-8{letter-spacing:0em;}.cls-9{letter-spacing:0.02em;}.cls-10{letter-spacing:0.04em;}.cls-11{letter-spacing:0.03em;}.cls-12{letter-spacing:-0.07em;}.cls-13{letter-spacing:0.04em;}.cls-14{letter-spacing:0.01em;}.cls-16{fill:#4992a0;}.cls-17{fill:#306970;}.cls-18{fill:#0a0d27;opacity:0.1;}</style></defs><text class="cls-1" transform="translate(208.28 172.16)">Mesothelioma<tspan class="cls-2" x="651.73" y="0"> </tspan><tspan class="cls-3" x="661.7" y="0">Hub</tspan></text><text class="cls-4" transform="translate(212.56 211.75)">C<tspan class="cls-5" x="23.51" y="0">O</tspan><tspan x="46.66" y="0">NN</tspan><tspan class="cls-6" x="96.18" y="0">E</tspan><tspan class="cls-7" x="116.46" y="0">C</tspan><tspan x="138.87" y="0">TING</tspan><tspan class="cls-8" x="217.9" y="0"> </tspan><tspan class="cls-9" x="226.42" y="0">Y</tspan><tspan class="cls-10" x="246.85" y="0">OU</tspan><tspan class="cls-11" x="294.39" y="0"> </tspan><tspan class="cls-10" x="303.91" y="0">WITH</tspan><tspan class="cls-11" x="390.57" y="0"> </tspan><tspan x="400.09" y="0">HEA</tspan><tspan class="cls-12" x="468.68" y="0">L</tspan><tspan class="cls-13" x="485.21" y="0">TH</tspan><tspan class="cls-14" x="528.75" y="0">C</tspan><tspan x="551.16" y="0">A</tspan><tspan class="cls-11" x="574.89" y="0">R</tspan><tspan x="598.04" y="0">E</tspan><tspan class="cls-11" x="619.05" y="0" xml:space="preserve"> R</tspan><tspan x="651.71" y="0">ESOU</tspan><tspan class="cls-6" x="741.87" y="0">R</tspan><tspan class="cls-11" x="764.65" y="0">C</tspan><tspan class="cls-13" x="787.8" y="0">ES</tspan></text><path class="cls-15" d="M108.54,96.37a14.15,14.15,0,1,0,14.15,14.15A14.16,14.16,0,0,0,108.54,96.37Z"/><path class="cls-15" d="M87.42,135.77l6.16,55.44a57.41,57.41,0,0,0,28.7.24l7.39-55.68C130.29,126.5,86.79,126.5,87.42,135.77Z"/><path class="cls-16" d="M139.83,109.16A10.88,10.88,0,1,0,150.71,120,10.89,10.89,0,0,0,139.83,109.16Z"/><path class="cls-16" d="M149.2,139.46c.24-4.53-10.17-6.16-17.71-4.94l-5.85,56a57.47,57.47,0,0,0,20.24-11.21c1.44-11.18.76-7.61,1.77-17.09Z"/><path class="cls-17" d="M77,109.16A10.88,10.88,0,1,0,87.9,120,10.88,10.88,0,0,0,77,109.16Z"/><path class="cls-17" d="M67.64,139.46l1.55,22.76c1,9.48.33,5.91,1.77,17.08,5.85,5,11.86,6.36,19.38,8.72l-5-53.5C77.81,133.3,67.4,134.93,67.64,139.46Z"/><path class="cls-3" d="M182.1,137.67a73.93,73.93,0,0,0-144.35-21.6,70.81,70.81,0,0,0,4.79,61.83,70.75,70.75,0,0,0,53.13,34.46,69.5,69.5,0,0,0,28.92-2.56,71.37,71.37,0,0,0,20-10.13,69.62,69.62,0,0,0,10.94-9.78q1.9-2.07,3.65-4.29l-.24.23a70.62,70.62,0,0,0,5.61-8.37,3.41,3.41,0,0,0-4.86-4.54c-9.47,6.58-24.31,26.72-51.38,24-12.53-1.27-17.85-5.3-18-8.9-.1-3.82,5.6-7.15,14.69-6.18,7.1.77,16.19-2.73,21.51-8.88a9.82,9.82,0,0,0,2.39-5.68c0-1.8-.94-3.1-3.59-2.62-2.89.52-7,2-10.24,2.73-7.82,1.68-9.38.8-21.16-1.56a40.08,40.08,0,0,0-19.14.59c-10.71,2.92-18.76-2.83-22.17-13.79a57.63,57.63,0,1,1,113.42-15.11c.15,12.94-4.88,26.39-12,36.09,2.81-2.27,8.49-5,11.62-2.65,3.13,2.72,1.74,7.58-.14,11.93C173.73,170.85,182.28,153.32,182.1,137.67Z"/><path class="cls-18" d="M113.63,74.22A58.21,58.21,0,0,0,68,97.17C79.78,86,92.64,80.74,108.05,80.56c31.82-.37,57.71,25.37,58.08,57.2.15,12.74-5.51,27.28-12,35.85.22-.13,1.3-1.36,2-2.07a57.6,57.6,0,0,0-42.42-97.32Z"/><path class="cls-18" d="M48.66,94.58c.72-1.08,1.46-2.16,2.22-3.25C50.1,92.38,49.37,93.47,48.66,94.58Z"/><path class="cls-18" d="M111.16,206.42a70.7,70.7,0,0,1-72.79-68.55c-.45-15.3,2.61-31.21,10.29-43.29-11,16.39-16.56,31-16,49.48a70.88,70.88,0,0,0,127.43,40.6A70.43,70.43,0,0,1,111.16,206.42Z"/></svg>